<?xml version="1.0" encoding="UTF-8"?>
<svg width="217px" height="103px" viewBox="0 0 217 103" version="1.1" xmlns="http://www.w3.org/2000/svg" xmlns:xlink="http://www.w3.org/1999/xlink">
    <!-- Generator: Sketch 51.3 (57544) - http://www.bohemiancoding.com/sketch -->
    <title>Group 3</title>
    <desc>Created with Sketch.</desc>
    <defs></defs>
    <g id="Repo" stroke="none" stroke-width="1" fill="none" fill-rule="evenodd">
        <g id="StyleGuide-Homepage" transform="translate(-592.000000, -251.000000)">
            <g id="Group-3" transform="translate(592.000000, 251.000000)">
                <path d="M34.894,87.282 L42.682,92.694 C38.722,98.7 31.792,102.66 23.542,102.66 C10.54,102.66 0.706,92.166 0.706,79.362 C0.706,66.426 10.54,55.998 23.542,55.998 C31.66,55.998 38.524,59.826 42.484,65.634 L34.63,71.046 C32.188,67.482 28.228,65.106 23.542,65.106 C15.952,65.106 10.408,71.442 10.408,79.362 C10.408,87.216 15.952,93.552 23.542,93.552 C28.294,93.552 32.452,90.978 34.894,87.282 Z M69.694,102 L69.694,98.502 C67.714,101.472 63.094,102.594 60.718,102.594 C52.864,102.594 45.01,96.456 45.01,86.556 C45.01,76.656 52.864,70.518 60.718,70.518 C62.698,70.518 67.318,71.178 69.694,74.61 L69.694,71.178 L78.802,71.178 L78.802,102 L69.694,102 Z M54.514,86.556 C54.514,90.978 58.408,93.882 62.236,93.882 C65.998,93.882 69.694,91.176 69.694,86.556 C69.694,81.936 65.998,79.23 62.236,79.23 C58.408,79.23 54.514,82.134 54.514,86.556 Z M94.924,85.698 L94.924,102 L85.75,102 L85.75,71.178 L94.924,71.178 L94.924,75.666 C96.574,72.564 100.204,70.518 103.834,70.518 C110.764,70.518 115.12,74.808 115.12,83.586 L115.12,102 L105.946,102 L105.946,85.566 C105.946,81.474 103.702,79.428 100.6,79.428 C97.366,79.428 94.924,81.012 94.924,85.698 Z M130.252,102 L117.25,71.178 L127.018,71.178 L134.212,90.318 L141.34,71.178 L151.174,71.178 L138.106,102 L130.252,102 Z M176.272,102 L176.272,98.502 C174.292,101.472 169.672,102.594 167.296,102.594 C159.442,102.594 151.588,96.456 151.588,86.556 C151.588,76.656 159.442,70.518 167.296,70.518 C169.276,70.518 173.896,71.178 176.272,74.61 L176.272,71.178 L185.38,71.178 L185.38,102 L176.272,102 Z M161.092,86.556 C161.092,90.978 164.986,93.882 168.814,93.882 C172.576,93.882 176.272,91.176 176.272,86.556 C176.272,81.936 172.576,79.23 168.814,79.23 C164.986,79.23 161.092,82.134 161.092,86.556 Z M204.34,90.384 L200.314,89.328 C191.074,86.82 191.008,82.134 191.074,79.296 C191.14,74.742 196.618,70.518 203.086,70.518 C209.224,70.518 215.692,73.224 215.758,80.748 L207.112,80.748 C207.046,78.438 205.066,78.042 203.614,78.042 C201.634,78.042 200.314,78.966 200.38,80.352 C200.446,81.276 201.238,82.2 203.086,82.662 L208.3,84.048 C215.758,86.094 216.682,91.044 216.682,93.024 C216.682,99.558 209.818,102.66 203.35,102.66 C197.08,102.66 190.546,98.898 190.48,92.034 L199.06,92.034 C199.126,93.816 201.106,95.598 203.614,95.598 C205.66,95.532 207.376,94.608 207.376,93.024 C207.376,91.704 206.584,90.978 204.34,90.384 Z" id="Canvas" fill="#333333"></path>
                <g id="Group-2" transform="translate(85.000000, 0.000000)">
                    <circle id="Oval" fill="#D9D9D9" cx="24" cy="24" r="24"></circle>
                    <path d="M32.3870014,31.3870827 L1,46 L15.6129986,14.6129173 L47,0 L32.3870014,31.3870827 Z M23.5,29 C26.5375661,29 29,26.5375661 29,23.5 C29,20.4624339 26.5375661,18 23.5,18 C20.4624339,18 18,20.4624339 18,23.5 C18,26.5375661 20.4624339,29 23.5,29 Z" id="Combined-Shape" fill="#333333" fill-rule="nonzero"></path>
                </g>
            </g>
        </g>
    </g>
</svg>